<?xml version="1.0" encoding="UTF-8" standalone="no"?>
<!-- Created with Inkscape (http://www.inkscape.org/) -->

<svg
   version="1.1"
   id="svg1"
   width="1124.196"
   height="648.49469"
   viewBox="0 0 1124.196 648.49469"
   sodipodi:docname="politifact_s6_human_stability.pdf"
   xmlns:inkscape="http://www.inkscape.org/namespaces/inkscape"
   xmlns:sodipodi="http://sodipodi.sourceforge.net/DTD/sodipodi-0.dtd"
   xmlns="http://www.w3.org/2000/svg"
   xmlns:svg="http://www.w3.org/2000/svg">
  <defs
     id="defs1">
    <clipPath
       clipPathUnits="userSpaceOnUse"
       id="clipPath4">
      <path
         d="M 58.918751,51.293754 H 835.29477 V 457.88976 H 58.918751 Z"
         id="path4" />
    </clipPath>
    <clipPath
       clipPathUnits="userSpaceOnUse"
       id="clipPath18">
      <path
         d="M 78.558333,580.103 H 1113.7263 V 37.975 H 78.558333 Z"
         id="path18" />
    </clipPath>
    <clipPath
       clipPathUnits="userSpaceOnUse"
       id="clipPath39">
      <path
         d="M 58.918751,51.293754 H 835.29477 V 457.88976 H 58.918751 Z"
         id="path39" />
    </clipPath>
  </defs>
  <sodipodi:namedview
     id="namedview1"
     pagecolor="#ffffff"
     bordercolor="#000000"
     borderopacity="0.25"
     inkscape:showpageshadow="2"
     inkscape:pageopacity="0.0"
     inkscape:pagecheckerboard="0"
     inkscape:deskcolor="#d1d1d1">
    <inkscape:page
       x="0"
       y="0"
       inkscape:label="1"
       id="page1"
       width="1124.196"
       height="648.49469"
       margin="0"
       bleed="0" />
  </sodipodi:namedview>
  <g
     id="g1"
     inkscape:groupmode="layer"
     inkscape:label="1">
    <path
       id="path1"
       d="M 0,0 H 843.14706 V 486.371 H 0 Z"
       style="fill:#ffffff;fill-opacity:1;fill-rule:nonzero;stroke:none"
       transform="matrix(1.3333333,0,0,-1.3333333,0,648.49467)" />
    <path
       id="path2"
       d="m 58.91875,51.29375 h 776.376 v 406.596 h -776.376 z"
       style="fill:#ffffff;fill-opacity:1;fill-rule:nonzero;stroke:none"
       transform="matrix(1.3333333,0,0,-1.3333333,0,648.49467)" />
    <path
       id="path3"
       d="m 164.053,51.29375 v 406.596"
       style="fill:none;stroke:#cccccc;stroke-width:1;stroke-linecap:round;stroke-linejoin:round;stroke-miterlimit:10;stroke-dasharray:none;stroke-opacity:0.3"
       transform="matrix(1.3333333,0,0,-1.3333333,0,648.49467)"
       clip-path="url(#clipPath4)" />
    <text
       id="text4"
       xml:space="preserve"
       transform="matrix(1.3333333,0,0,1.3333333,206.86233,608.0405)"><tspan
         id="tspan4"
         style="font-variant:normal;font-weight:normal;font-size:16px;font-family:Arial;writing-mode:lr-tb;fill:#262626;fill-opacity:1;fill-rule:nonzero;stroke:none"
         x="0"
         y="0">20</tspan></text>
    <path
       id="path5"
       d="m 325.798,51.29375 v 406.596"
       style="fill:none;stroke:#cccccc;stroke-width:1;stroke-linecap:round;stroke-linejoin:round;stroke-miterlimit:10;stroke-dasharray:none;stroke-opacity:0.3"
       transform="matrix(1.3333333,0,0,-1.3333333,0,648.49467)"
       clip-path="url(#clipPath4)" />
    <text
       id="text5"
       xml:space="preserve"
       transform="matrix(1.3333333,0,0,1.3333333,422.52233,608.0405)"><tspan
         id="tspan5"
         style="font-variant:normal;font-weight:normal;font-size:16px;font-family:Arial;writing-mode:lr-tb;fill:#262626;fill-opacity:1;fill-rule:nonzero;stroke:none"
         x="0"
         y="0">40</tspan></text>
    <path
       id="path6"
       d="m 487.543,51.29375 v 406.596"
       style="fill:none;stroke:#cccccc;stroke-width:1;stroke-linecap:round;stroke-linejoin:round;stroke-miterlimit:10;stroke-dasharray:none;stroke-opacity:0.3"
       transform="matrix(1.3333333,0,0,-1.3333333,0,648.49467)"
       clip-path="url(#clipPath4)" />
    <text
       id="text6"
       xml:space="preserve"
       transform="matrix(1.3333333,0,0,1.3333333,638.18233,608.0405)"><tspan
         id="tspan6"
         style="font-variant:normal;font-weight:normal;font-size:16px;font-family:Arial;writing-mode:lr-tb;fill:#262626;fill-opacity:1;fill-rule:nonzero;stroke:none"
         x="0"
         y="0">60</tspan></text>
    <path
       id="path7"
       d="m 649.288,51.29375 v 406.596"
       style="fill:none;stroke:#cccccc;stroke-width:1;stroke-linecap:round;stroke-linejoin:round;stroke-miterlimit:10;stroke-dasharray:none;stroke-opacity:0.3"
       transform="matrix(1.3333333,0,0,-1.3333333,0,648.49467)"
       clip-path="url(#clipPath4)" />
    <text
       id="text7"
       xml:space="preserve"
       transform="matrix(1.3333333,0,0,1.3333333,853.84233,608.0405)"><tspan
         id="tspan7"
         style="font-variant:normal;font-weight:normal;font-size:16px;font-family:Arial;writing-mode:lr-tb;fill:#262626;fill-opacity:1;fill-rule:nonzero;stroke:none"
         x="0"
         y="0">80</tspan></text>
    <path
       id="path8"
       d="m 811.033,51.29375 v 406.596"
       style="fill:none;stroke:#cccccc;stroke-width:1;stroke-linecap:round;stroke-linejoin:round;stroke-miterlimit:10;stroke-dasharray:none;stroke-opacity:0.3"
       transform="matrix(1.3333333,0,0,-1.3333333,0,648.49467)"
       clip-path="url(#clipPath4)" />
    <text
       id="text8"
       xml:space="preserve"
       transform="matrix(1.3333333,0,0,1.3333333,1063.5648,608.0405)"><tspan
         id="tspan8"
         style="font-variant:normal;font-weight:normal;font-size:16px;font-family:Arial;writing-mode:lr-tb;fill:#262626;fill-opacity:1;fill-rule:nonzero;stroke:none"
         x="0"
         y="0">100</tspan></text>
    <text
       id="text9"
       xml:space="preserve"
       transform="matrix(1.3333333,0,0,1.3333333,443.10067,634.12383)"><tspan
         id="tspan9"
         style="font-variant:normal;font-weight:700;font-size:17px;font-family:Arial;writing-mode:lr-tb;fill:#262626;fill-opacity:1;fill-rule:nonzero;stroke:none"
         x="0"
         y="0">Percentage of Data Sampled</tspan></text>
    <path
       id="path9"
       d="m 58.91875,89.71227 h 776.376"
       style="fill:none;stroke:#cccccc;stroke-width:1;stroke-linecap:round;stroke-linejoin:round;stroke-miterlimit:10;stroke-dasharray:none;stroke-opacity:0.3"
       transform="matrix(1.3333333,0,0,-1.3333333,0,648.49467)"
       clip-path="url(#clipPath4)" />
    <text
       id="text10"
       xml:space="preserve"
       transform="matrix(1.3333333,0,0,1.3333333,36.204167,536.51372)"><tspan
         id="tspan10"
         style="font-variant:normal;font-weight:normal;font-size:16px;font-family:Arial;writing-mode:lr-tb;fill:#262626;fill-opacity:1;fill-rule:nonzero;stroke:none"
         x="0"
         y="0">0.0</tspan></text>
    <path
       id="path10"
       d="m 58.91875,153.74314 h 776.376"
       style="fill:none;stroke:#cccccc;stroke-width:1;stroke-linecap:round;stroke-linejoin:round;stroke-miterlimit:10;stroke-dasharray:none;stroke-opacity:0.3"
       transform="matrix(1.3333333,0,0,-1.3333333,0,648.49467)"
       clip-path="url(#clipPath4)" />
    <text
       id="text11"
       xml:space="preserve"
       transform="matrix(1.3333333,0,0,1.3333333,36.204167,451.13924)"><tspan
         id="tspan11"
         style="font-variant:normal;font-weight:normal;font-size:16px;font-family:Arial;writing-mode:lr-tb;fill:#262626;fill-opacity:1;fill-rule:nonzero;stroke:none"
         x="0"
         y="0">0.2</tspan></text>
    <path
       id="path11"
       d="m 58.91875,217.774 h 776.376"
       style="fill:none;stroke:#cccccc;stroke-width:1;stroke-linecap:round;stroke-linejoin:round;stroke-miterlimit:10;stroke-dasharray:none;stroke-opacity:0.3"
       transform="matrix(1.3333333,0,0,-1.3333333,0,648.49467)"
       clip-path="url(#clipPath4)" />
    <text
       id="text12"
       xml:space="preserve"
       transform="matrix(1.3333333,0,0,1.3333333,36.204167,365.76475)"><tspan
         id="tspan12"
         style="font-variant:normal;font-weight:normal;font-size:16px;font-family:Arial;writing-mode:lr-tb;fill:#262626;fill-opacity:1;fill-rule:nonzero;stroke:none"
         x="0"
         y="0">0.4</tspan></text>
    <path
       id="path12"
       d="m 58.91875,281.80487 h 776.376"
       style="fill:none;stroke:#cccccc;stroke-width:1;stroke-linecap:round;stroke-linejoin:round;stroke-miterlimit:10;stroke-dasharray:none;stroke-opacity:0.3"
       transform="matrix(1.3333333,0,0,-1.3333333,0,648.49467)"
       clip-path="url(#clipPath4)" />
    <text
       id="text13"
       xml:space="preserve"
       transform="matrix(1.3333333,0,0,1.3333333,36.204167,280.39026)"><tspan
         id="tspan13"
         style="font-variant:normal;font-weight:normal;font-size:16px;font-family:Arial;writing-mode:lr-tb;fill:#262626;fill-opacity:1;fill-rule:nonzero;stroke:none"
         x="0"
         y="0">0.6</tspan></text>
    <path
       id="path13"
       d="m 58.91875,345.83573 h 776.376"
       style="fill:none;stroke:#cccccc;stroke-width:1;stroke-linecap:round;stroke-linejoin:round;stroke-miterlimit:10;stroke-dasharray:none;stroke-opacity:0.3"
       transform="matrix(1.3333333,0,0,-1.3333333,0,648.49467)"
       clip-path="url(#clipPath4)" />
    <text
       id="text14"
       xml:space="preserve"
       transform="matrix(1.3333333,0,0,1.3333333,36.204167,195.01577)"><tspan
         id="tspan14"
         style="font-variant:normal;font-weight:normal;font-size:16px;font-family:Arial;writing-mode:lr-tb;fill:#262626;fill-opacity:1;fill-rule:nonzero;stroke:none"
         x="0"
         y="0">0.8</tspan></text>
    <path
       id="path14"
       d="m 58.91875,409.8666 h 776.376"
       style="fill:none;stroke:#cccccc;stroke-width:1;stroke-linecap:round;stroke-linejoin:round;stroke-miterlimit:10;stroke-dasharray:none;stroke-opacity:0.3"
       transform="matrix(1.3333333,0,0,-1.3333333,0,648.49467)"
       clip-path="url(#clipPath4)" />
    <text
       id="text15"
       xml:space="preserve"
       transform="matrix(1.3333333,0,0,1.3333333,36.204167,109.64128)"><tspan
         id="tspan15"
         style="font-variant:normal;font-weight:normal;font-size:16px;font-family:Arial;writing-mode:lr-tb;fill:#262626;fill-opacity:1;fill-rule:nonzero;stroke:none"
         x="0"
         y="0">1.0</tspan></text>
    <text
       id="text16"
       xml:space="preserve"
       transform="matrix(0,-1.3333333,1.3333333,0,26.1,452.94525)"><tspan
         id="tspan16"
         style="font-variant:normal;font-weight:700;font-size:17px;font-family:Arial;writing-mode:lr-tb;fill:#262626;fill-opacity:1;fill-rule:nonzero;stroke:none"
         x="0"
         y="0">Acceptance Rate (p &gt; 0.05)</tspan></text>
    <path
       id="path16"
       d="m 83.1805,331.82113 80.8725,-31.45917 80.8725,-16.94933 80.8725,-19.57642 80.8725,-18.60127 80.8725,-11.74765 80.8725,-15.34001 80.8725,-10.18293 80.8725,-11.0767 80.8725,-11.36484"
       style="fill:none;stroke:#4c72b0;stroke-width:2.5;stroke-linecap:round;stroke-linejoin:round;stroke-miterlimit:10;stroke-dasharray:none;stroke-opacity:1"
       transform="matrix(1.3333333,0,0,-1.3333333,0,648.49467)" />
    <g
       id="g17"
       clip-path="url(#clipPath18)">
      <path
         d="m 0,-5 c 1.326016,0 2.597899,0.526832 3.535534,1.464466 C 4.473168,-2.597899 5,-1.326016 5,0 5,1.326016 4.473168,2.597899 3.535534,3.535534 2.597899,4.473168 1.326016,5 0,5 -1.326016,5 -2.597899,4.473168 -3.535534,3.535534 -4.473168,2.597899 -5,1.326016 -5,0 -5,-1.326016 -4.473168,-2.597899 -3.535534,-3.535534 -2.597899,-4.473168 -1.326016,-5 0,-5 Z"
         style="fill:#4c72b0;fill-opacity:1;fill-rule:nonzero;stroke:#ffffff;stroke-width:1.5;stroke-linecap:butt;stroke-linejoin:round;stroke-miterlimit:10;stroke-dasharray:none;stroke-opacity:1"
         transform="matrix(1.3333333,0,0,-1.3333333,110.90733,206.06649)"
         id="path17" />
    </g>
    <g
       id="g19"
       clip-path="url(#clipPath18)">
      <path
         d="m 0,-5 c 1.326016,0 2.597899,0.526832 3.535534,1.464466 C 4.473168,-2.597899 5,-1.326016 5,0 5,1.326016 4.473168,2.597899 3.535534,3.535534 2.597899,4.473168 1.326016,5 0,5 -1.326016,5 -2.597899,4.473168 -3.535534,3.535534 -4.473168,2.597899 -5,1.326016 -5,0 -5,-1.326016 -4.473168,-2.597899 -3.535534,-3.535534 -2.597899,-4.473168 -1.326016,-5 0,-5 Z"
         style="fill:#4c72b0;fill-opacity:1;fill-rule:nonzero;stroke:#ffffff;stroke-width:1.5;stroke-linecap:butt;stroke-linejoin:round;stroke-miterlimit:10;stroke-dasharray:none;stroke-opacity:1"
         transform="matrix(1.3333333,0,0,-1.3333333,218.73733,248.01205)"
         id="path19" />
    </g>
    <g
       id="g20"
       clip-path="url(#clipPath18)">
      <path
         d="m 0,-5 c 1.326016,0 2.597899,0.526832 3.535534,1.464466 C 4.473168,-2.597899 5,-1.326016 5,0 5,1.326016 4.473168,2.597899 3.535534,3.535534 2.597899,4.473168 1.326016,5 0,5 -1.326016,5 -2.597899,4.473168 -3.535534,3.535534 -4.473168,2.597899 -5,1.326016 -5,0 -5,-1.326016 -4.473168,-2.597899 -3.535534,-3.535534 -2.597899,-4.473168 -1.326016,-5 0,-5 Z"
         style="fill:#4c72b0;fill-opacity:1;fill-rule:nonzero;stroke:#ffffff;stroke-width:1.5;stroke-linecap:butt;stroke-linejoin:round;stroke-miterlimit:10;stroke-dasharray:none;stroke-opacity:1"
         transform="matrix(1.3333333,0,0,-1.3333333,326.56733,270.61116)"
         id="path20" />
    </g>
    <g
       id="g21"
       clip-path="url(#clipPath18)">
      <path
         d="m 0,-5 c 1.326016,0 2.597899,0.526832 3.535534,1.464466 C 4.473168,-2.597899 5,-1.326016 5,0 5,1.326016 4.473168,2.597899 3.535534,3.535534 2.597899,4.473168 1.326016,5 0,5 -1.326016,5 -2.597899,4.473168 -3.535534,3.535534 -4.473168,2.597899 -5,1.326016 -5,0 -5,-1.326016 -4.473168,-2.597899 -3.535534,-3.535534 -2.597899,-4.473168 -1.326016,-5 0,-5 Z"
         style="fill:#4c72b0;fill-opacity:1;fill-rule:nonzero;stroke:#ffffff;stroke-width:1.5;stroke-linecap:butt;stroke-linejoin:round;stroke-miterlimit:10;stroke-dasharray:none;stroke-opacity:1"
         transform="matrix(1.3333333,0,0,-1.3333333,434.39733,296.71306)"
         id="path21" />
    </g>
    <g
       id="g22"
       clip-path="url(#clipPath18)">
      <path
         d="m 0,-5 c 1.326016,0 2.597899,0.526832 3.535534,1.464466 C 4.473168,-2.597899 5,-1.326016 5,0 5,1.326016 4.473168,2.597899 3.535534,3.535534 2.597899,4.473168 1.326016,5 0,5 -1.326016,5 -2.597899,4.473168 -3.535534,3.535534 -4.473168,2.597899 -5,1.326016 -5,0 -5,-1.326016 -4.473168,-2.597899 -3.535534,-3.535534 -2.597899,-4.473168 -1.326016,-5 0,-5 Z"
         style="fill:#4c72b0;fill-opacity:1;fill-rule:nonzero;stroke:#ffffff;stroke-width:1.5;stroke-linecap:butt;stroke-linejoin:round;stroke-miterlimit:10;stroke-dasharray:none;stroke-opacity:1"
         transform="matrix(1.3333333,0,0,-1.3333333,542.22733,321.51475)"
         id="path22" />
    </g>
    <g
       id="g23"
       clip-path="url(#clipPath18)">
      <path
         d="m 0,-5 c 1.326016,0 2.597899,0.526832 3.535534,1.464466 C 4.473168,-2.597899 5,-1.326016 5,0 5,1.326016 4.473168,2.597899 3.535534,3.535534 2.597899,4.473168 1.326016,5 0,5 -1.326016,5 -2.597899,4.473168 -3.535534,3.535534 -4.473168,2.597899 -5,1.326016 -5,0 -5,-1.326016 -4.473168,-2.597899 -3.535534,-3.535534 -2.597899,-4.473168 -1.326016,-5 0,-5 Z"
         style="fill:#4c72b0;fill-opacity:1;fill-rule:nonzero;stroke:#ffffff;stroke-width:1.5;stroke-linecap:butt;stroke-linejoin:round;stroke-miterlimit:10;stroke-dasharray:none;stroke-opacity:1"
         transform="matrix(1.3333333,0,0,-1.3333333,650.05733,337.17828)"
         id="path23" />
    </g>
    <g
       id="g24"
       clip-path="url(#clipPath18)">
      <path
         d="m 0,-5 c 1.326016,0 2.597899,0.526832 3.535534,1.464466 C 4.473168,-2.597899 5,-1.326016 5,0 5,1.326016 4.473168,2.597899 3.535534,3.535534 2.597899,4.473168 1.326016,5 0,5 -1.326016,5 -2.597899,4.473168 -3.535534,3.535534 -4.473168,2.597899 -5,1.326016 -5,0 -5,-1.326016 -4.473168,-2.597899 -3.535534,-3.535534 -2.597899,-4.473168 -1.326016,-5 0,-5 Z"
         style="fill:#4c72b0;fill-opacity:1;fill-rule:nonzero;stroke:#ffffff;stroke-width:1.5;stroke-linecap:butt;stroke-linejoin:round;stroke-miterlimit:10;stroke-dasharray:none;stroke-opacity:1"
         transform="matrix(1.3333333,0,0,-1.3333333,757.88733,357.63163)"
         id="path24" />
    </g>
    <g
       id="g25"
       clip-path="url(#clipPath18)">
      <path
         d="m 0,-5 c 1.326016,0 2.597899,0.526832 3.535534,1.464466 C 4.473168,-2.597899 5,-1.326016 5,0 5,1.326016 4.473168,2.597899 3.535534,3.535534 2.597899,4.473168 1.326016,5 0,5 -1.326016,5 -2.597899,4.473168 -3.535534,3.535534 -4.473168,2.597899 -5,1.326016 -5,0 -5,-1.326016 -4.473168,-2.597899 -3.535534,-3.535534 -2.597899,-4.473168 -1.326016,-5 0,-5 Z"
         style="fill:#4c72b0;fill-opacity:1;fill-rule:nonzero;stroke:#ffffff;stroke-width:1.5;stroke-linecap:butt;stroke-linejoin:round;stroke-miterlimit:10;stroke-dasharray:none;stroke-opacity:1"
         transform="matrix(1.3333333,0,0,-1.3333333,865.71733,371.20887)"
         id="path25" />
    </g>
    <g
       id="g26"
       clip-path="url(#clipPath18)">
      <path
         d="m 0,-5 c 1.326016,0 2.597899,0.526832 3.535534,1.464466 C 4.473168,-2.597899 5,-1.326016 5,0 5,1.326016 4.473168,2.597899 3.535534,3.535534 2.597899,4.473168 1.326016,5 0,5 -1.326016,5 -2.597899,4.473168 -3.535534,3.535534 -4.473168,2.597899 -5,1.326016 -5,0 -5,-1.326016 -4.473168,-2.597899 -3.535534,-3.535534 -2.597899,-4.473168 -1.326016,-5 0,-5 Z"
         style="fill:#4c72b0;fill-opacity:1;fill-rule:nonzero;stroke:#ffffff;stroke-width:1.5;stroke-linecap:butt;stroke-linejoin:round;stroke-miterlimit:10;stroke-dasharray:none;stroke-opacity:1"
         transform="matrix(1.3333333,0,0,-1.3333333,973.54733,385.9778)"
         id="path26" />
    </g>
    <g
       id="g27"
       clip-path="url(#clipPath18)">
      <path
         d="m 0,-5 c 1.326016,0 2.597899,0.526832 3.535534,1.464466 C 4.473168,-2.597899 5,-1.326016 5,0 5,1.326016 4.473168,2.597899 3.535534,3.535534 2.597899,4.473168 1.326016,5 0,5 -1.326016,5 -2.597899,4.473168 -3.535534,3.535534 -4.473168,2.597899 -5,1.326016 -5,0 -5,-1.326016 -4.473168,-2.597899 -3.535534,-3.535534 -2.597899,-4.473168 -1.326016,-5 0,-5 Z"
         style="fill:#4c72b0;fill-opacity:1;fill-rule:nonzero;stroke:#ffffff;stroke-width:1.5;stroke-linecap:butt;stroke-linejoin:round;stroke-miterlimit:10;stroke-dasharray:none;stroke-opacity:1"
         transform="matrix(1.3333333,0,0,-1.3333333,1081.3773,401.13092)"
         id="path27" />
    </g>
    <path
       id="path28"
       d="m 83.1805,325.90506 c 1.568963,0 3.073876,0.62335 4.1833,1.73277 1.109424,1.10943 1.73278,2.61434 1.73278,4.1833 0,1.56897 -0.623356,3.07388 -1.73278,4.1833 -1.109424,1.10943 -2.614337,1.73278 -4.1833,1.73278 -1.568963,0 -3.073876,-0.62335 -4.1833,-1.73278 -1.109424,-1.10942 -1.73278,-2.61433 -1.73278,-4.1833 0,-1.56896 0.623356,-3.07387 1.73278,-4.1833 1.109424,-1.10942 2.614337,-1.73277 4.1833,-1.73277 z"
       style="fill:#00ff7f;fill-opacity:1;fill-rule:nonzero;stroke:#000000;stroke-width:1;stroke-linecap:butt;stroke-linejoin:round;stroke-miterlimit:10;stroke-dasharray:none;stroke-opacity:1"
       transform="matrix(1.3333333,0,0,-1.3333333,0,648.49467)" />
    <path
       id="path29"
       d="m 164.053,294.44588 c 1.56896,0 3.07388,0.62336 4.1833,1.73278 1.10942,1.10943 1.73278,2.61434 1.73278,4.1833 0,1.56896 -0.62336,3.07388 -1.73278,4.1833 -1.10942,1.10943 -2.61434,1.73278 -4.1833,1.73278 -1.56896,0 -3.07388,-0.62335 -4.1833,-1.73278 -1.10942,-1.10942 -1.73278,-2.61434 -1.73278,-4.1833 0,-1.56896 0.62336,-3.07387 1.73278,-4.1833 1.10942,-1.10942 2.61434,-1.73278 4.1833,-1.73278 z"
       style="fill:#00ff7f;fill-opacity:1;fill-rule:nonzero;stroke:#000000;stroke-width:1;stroke-linecap:butt;stroke-linejoin:round;stroke-miterlimit:10;stroke-dasharray:none;stroke-opacity:1"
       transform="matrix(1.3333333,0,0,-1.3333333,0,648.49467)" />
    <path
       id="path30"
       d="m 244.9255,277.49655 c 1.56896,0 3.07388,0.62336 4.1833,1.73278 1.10942,1.10942 1.73278,2.61434 1.73278,4.1833 0,1.56896 -0.62336,3.07388 -1.73278,4.1833 -1.10942,1.10942 -2.61434,1.73278 -4.1833,1.73278 -1.56896,0 -3.07388,-0.62336 -4.1833,-1.73278 -1.10942,-1.10942 -1.73278,-2.61434 -1.73278,-4.1833 0,-1.56896 0.62336,-3.07388 1.73278,-4.1833 1.10942,-1.10942 2.61434,-1.73278 4.1833,-1.73278 z"
       style="fill:#00ff7f;fill-opacity:1;fill-rule:nonzero;stroke:#000000;stroke-width:1;stroke-linecap:butt;stroke-linejoin:round;stroke-miterlimit:10;stroke-dasharray:none;stroke-opacity:1"
       transform="matrix(1.3333333,0,0,-1.3333333,0,648.49467)" />
    <path
       id="path31"
       d="m 325.798,257.92013 c 1.56896,0 3.07388,0.62335 4.1833,1.73278 1.10942,1.10942 1.73278,2.61433 1.73278,4.1833 0,1.56896 -0.62336,3.07387 -1.73278,4.1833 -1.10942,1.10942 -2.61434,1.73278 -4.1833,1.73278 -1.56896,0 -3.07388,-0.62336 -4.1833,-1.73278 -1.10942,-1.10943 -1.73278,-2.61434 -1.73278,-4.1833 0,-1.56897 0.62336,-3.07388 1.73278,-4.1833 1.10942,-1.10943 2.61434,-1.73278 4.1833,-1.73278 z"
       style="fill:#00ff7f;fill-opacity:1;fill-rule:nonzero;stroke:#000000;stroke-width:1;stroke-linecap:butt;stroke-linejoin:round;stroke-miterlimit:10;stroke-dasharray:none;stroke-opacity:1"
       transform="matrix(1.3333333,0,0,-1.3333333,0,648.49467)" />
    <path
       id="path32"
       d="m 406.6705,239.31886 c 1.56896,0 3.07388,0.62335 4.1833,1.73278 1.10942,1.10942 1.73278,2.61434 1.73278,4.1833 0,1.56896 -0.62336,3.07387 -1.73278,4.1833 -1.10942,1.10942 -2.61434,1.73278 -4.1833,1.73278 -1.56896,0 -3.07388,-0.62336 -4.1833,-1.73278 -1.10942,-1.10943 -1.73278,-2.61434 -1.73278,-4.1833 0,-1.56896 0.62336,-3.07388 1.73278,-4.1833 1.10942,-1.10943 2.61434,-1.73278 4.1833,-1.73278 z"
       style="fill:#00ff7f;fill-opacity:1;fill-rule:nonzero;stroke:#000000;stroke-width:1;stroke-linecap:butt;stroke-linejoin:round;stroke-miterlimit:10;stroke-dasharray:none;stroke-opacity:1"
       transform="matrix(1.3333333,0,0,-1.3333333,0,648.49467)" />
    <path
       id="path33"
       d="m 487.543,227.57121 c 1.56896,0 3.07388,0.62336 4.1833,1.73278 1.10942,1.10943 1.73278,2.61434 1.73278,4.1833 0,1.56897 -0.62336,3.07388 -1.73278,4.1833 -1.10942,1.10943 -2.61434,1.73278 -4.1833,1.73278 -1.56896,0 -3.07388,-0.62335 -4.1833,-1.73278 -1.10942,-1.10942 -1.73278,-2.61433 -1.73278,-4.1833 0,-1.56896 0.62336,-3.07387 1.73278,-4.1833 1.10942,-1.10942 2.61434,-1.73278 4.1833,-1.73278 z"
       style="fill:#00ff7f;fill-opacity:1;fill-rule:nonzero;stroke:#000000;stroke-width:1;stroke-linecap:butt;stroke-linejoin:round;stroke-miterlimit:10;stroke-dasharray:none;stroke-opacity:1"
       transform="matrix(1.3333333,0,0,-1.3333333,0,648.49467)" />
    <path
       id="path34"
       d="m 568.4155,212.2312 c 1.56896,0 3.07388,0.62335 4.1833,1.73278 1.10942,1.10942 1.73278,2.61433 1.73278,4.1833 0,1.56896 -0.62336,3.07387 -1.73278,4.1833 -1.10942,1.10942 -2.61434,1.73278 -4.1833,1.73278 -1.56896,0 -3.07388,-0.62336 -4.1833,-1.73278 -1.10942,-1.10943 -1.73278,-2.61434 -1.73278,-4.1833 0,-1.56897 0.62336,-3.07388 1.73278,-4.1833 1.10942,-1.10943 2.61434,-1.73278 4.1833,-1.73278 z"
       style="fill:#00ff7f;fill-opacity:1;fill-rule:nonzero;stroke:#000000;stroke-width:1;stroke-linecap:butt;stroke-linejoin:round;stroke-miterlimit:10;stroke-dasharray:none;stroke-opacity:1"
       transform="matrix(1.3333333,0,0,-1.3333333,0,648.49467)" />
    <path
       id="path35"
       d="m 649.288,202.04827 c 1.56896,0 3.07388,0.62335 4.1833,1.73278 1.10942,1.10942 1.73278,2.61433 1.73278,4.1833 0,1.56896 -0.62336,3.07387 -1.73278,4.1833 -1.10942,1.10942 -2.61434,1.73278 -4.1833,1.73278 -1.56896,0 -3.07388,-0.62336 -4.1833,-1.73278 -1.10942,-1.10943 -1.73278,-2.61434 -1.73278,-4.1833 0,-1.56897 0.62336,-3.07388 1.73278,-4.1833 1.10942,-1.10943 2.61434,-1.73278 4.1833,-1.73278 z"
       style="fill:#00ff7f;fill-opacity:1;fill-rule:nonzero;stroke:#000000;stroke-width:1;stroke-linecap:butt;stroke-linejoin:round;stroke-miterlimit:10;stroke-dasharray:none;stroke-opacity:1"
       transform="matrix(1.3333333,0,0,-1.3333333,0,648.49467)" />
    <path
       id="path36"
       d="m 730.1605,190.97157 c 1.56896,0 3.07388,0.62335 4.1833,1.73278 1.10942,1.10942 1.73278,2.61433 1.73278,4.1833 0,1.56896 -0.62336,3.07387 -1.73278,4.1833 -1.10942,1.10942 -2.61434,1.73278 -4.1833,1.73278 -1.56896,0 -3.07388,-0.62336 -4.1833,-1.73278 -1.10942,-1.10943 -1.73278,-2.61434 -1.73278,-4.1833 0,-1.56897 0.62336,-3.07388 1.73278,-4.1833 1.10942,-1.10943 2.61434,-1.73278 4.1833,-1.73278 z"
       style="fill:#00ff7f;fill-opacity:1;fill-rule:nonzero;stroke:#000000;stroke-width:1;stroke-linecap:butt;stroke-linejoin:round;stroke-miterlimit:10;stroke-dasharray:none;stroke-opacity:1"
       transform="matrix(1.3333333,0,0,-1.3333333,0,648.49467)" />
    <path
       id="path37"
       d="m 811.033,179.60673 c 1.56896,0 3.07388,0.62335 4.1833,1.73278 1.10942,1.10942 1.73278,2.61433 1.73278,4.1833 0,1.56896 -0.62336,3.07387 -1.73278,4.1833 -1.10942,1.10942 -2.61434,1.73278 -4.1833,1.73278 -1.56896,0 -3.07388,-0.62336 -4.1833,-1.73278 -1.10942,-1.10943 -1.73278,-2.61434 -1.73278,-4.1833 0,-1.56897 0.62336,-3.07388 1.73278,-4.1833 1.10942,-1.10943 2.61434,-1.73278 4.1833,-1.73278 z"
       style="fill:#00ff7f;fill-opacity:1;fill-rule:nonzero;stroke:#000000;stroke-width:1;stroke-linecap:butt;stroke-linejoin:round;stroke-miterlimit:10;stroke-dasharray:none;stroke-opacity:1"
       transform="matrix(1.3333333,0,0,-1.3333333,0,648.49467)" />
    <path
       id="path38"
       d="m 58.91875,249.78943 h 776.376"
       style="fill:none;stroke:#808080;stroke-width:1.5;stroke-linecap:butt;stroke-linejoin:round;stroke-miterlimit:10;stroke-dasharray:5.55, 2.4;stroke-dashoffset:0;stroke-opacity:0.6"
       transform="matrix(1.3333333,0,0,-1.3333333,0,648.49467)"
       clip-path="url(#clipPath39)" />
    <path
       id="path40"
       d="m 58.91875,89.71227 h 776.376"
       style="fill:none;stroke:#000000;stroke-width:1;stroke-linecap:round;stroke-linejoin:round;stroke-miterlimit:10;stroke-dasharray:none;stroke-opacity:0.2"
       transform="matrix(1.3333333,0,0,-1.3333333,0,648.49467)"
       clip-path="url(#clipPath39)" />
    <path
       id="path41"
       d="m 58.91875,51.29375 v 406.596"
       style="fill:none;stroke:#cccccc;stroke-width:1.25;stroke-linecap:square;stroke-linejoin:miter;stroke-miterlimit:10;stroke-dasharray:none;stroke-opacity:1"
       transform="matrix(1.3333333,0,0,-1.3333333,0,648.49467)" />
    <path
       id="path42"
       d="m 835.29475,51.29375 v 406.596"
       style="fill:none;stroke:#cccccc;stroke-width:1.25;stroke-linecap:square;stroke-linejoin:miter;stroke-miterlimit:10;stroke-dasharray:none;stroke-opacity:1"
       transform="matrix(1.3333333,0,0,-1.3333333,0,648.49467)" />
    <path
       id="path43"
       d="m 58.91875,51.29375 h 776.376"
       style="fill:none;stroke:#cccccc;stroke-width:1.25;stroke-linecap:square;stroke-linejoin:miter;stroke-miterlimit:10;stroke-dasharray:none;stroke-opacity:1"
       transform="matrix(1.3333333,0,0,-1.3333333,0,648.49467)" />
    <path
       id="path44"
       d="m 58.91875,457.88975 h 776.376"
       style="fill:none;stroke:#cccccc;stroke-width:1.25;stroke-linecap:square;stroke-linejoin:miter;stroke-miterlimit:10;stroke-dasharray:none;stroke-opacity:1"
       transform="matrix(1.3333333,0,0,-1.3333333,0,648.49467)" />
    <text
       id="text44"
       xml:space="preserve"
       transform="matrix(1.3333333,0,0,1.3333333,82.376083,183.71232)"><tspan
         id="tspan44"
         style="font-variant:normal;font-weight:700;font-size:14px;font-family:Arial;writing-mode:lr-tb;fill:#696969;fill-opacity:1;fill-rule:nonzero;stroke:none"
         x="0"
         y="0">40,800</tspan></text>
    <text
       id="text45"
       xml:space="preserve"
       transform="matrix(1.3333333,0,0,1.3333333,190.20608,225.65788)"><tspan
         id="tspan45"
         style="font-variant:normal;font-weight:700;font-size:14px;font-family:Arial;writing-mode:lr-tb;fill:#696969;fill-opacity:1;fill-rule:nonzero;stroke:none"
         x="0"
         y="0">21,600</tspan></text>
    <text
       id="text46"
       xml:space="preserve"
       transform="matrix(1.3333333,0,0,1.3333333,298.03608,248.25699)"><tspan
         id="tspan46"
         style="font-variant:normal;font-weight:700;font-size:14px;font-family:Arial;writing-mode:lr-tb;fill:#696969;fill-opacity:1;fill-rule:nonzero;stroke:none"
         x="0"
         y="0">45,800</tspan></text>
    <text
       id="text47"
       xml:space="preserve"
       transform="matrix(1.3333333,0,0,1.3333333,405.86608,274.35889)"><tspan
         id="tspan47"
         style="font-variant:normal;font-weight:700;font-size:14px;font-family:Arial;writing-mode:lr-tb;fill:#696969;fill-opacity:1;fill-rule:nonzero;stroke:none"
         x="0"
         y="0">48,000</tspan></text>
    <text
       id="text48"
       xml:space="preserve"
       transform="matrix(1.3333333,0,0,1.3333333,513.69608,299.16058)"><tspan
         id="tspan48"
         style="font-variant:normal;font-weight:700;font-size:14px;font-family:Arial;writing-mode:lr-tb;fill:#696969;fill-opacity:1;fill-rule:nonzero;stroke:none"
         x="0"
         y="0">23,900</tspan></text>
    <text
       id="text49"
       xml:space="preserve"
       transform="matrix(1.3333333,0,0,1.3333333,616.33858,314.82411)"><tspan
         id="tspan49"
         style="font-variant:normal;font-weight:700;font-size:14px;font-family:Arial;writing-mode:lr-tb;fill:#696969;fill-opacity:1;fill-rule:nonzero;stroke:none"
         x="0"
         y="0">120,700</tspan></text>
    <text
       id="text50"
       xml:space="preserve"
       transform="matrix(1.3333333,0,0,1.3333333,729.35608,335.27747)"><tspan
         id="tspan50"
         style="font-variant:normal;font-weight:700;font-size:14px;font-family:Arial;writing-mode:lr-tb;fill:#696969;fill-opacity:1;fill-rule:nonzero;stroke:none"
         x="0"
         y="0">66,900</tspan></text>
    <text
       id="text51"
       xml:space="preserve"
       transform="matrix(1.3333333,0,0,1.3333333,837.18608,348.8547)"><tspan
         id="tspan51"
         style="font-variant:normal;font-weight:700;font-size:14px;font-family:Arial;writing-mode:lr-tb;fill:#696969;fill-opacity:1;fill-rule:nonzero;stroke:none"
         x="0"
         y="0">20,300</tspan></text>
    <text
       id="text52"
       xml:space="preserve"
       transform="matrix(1.3333333,0,0,1.3333333,939.82858,363.62364)"><tspan
         id="tspan52"
         style="font-variant:normal;font-weight:700;font-size:14px;font-family:Arial;writing-mode:lr-tb;fill:#696969;fill-opacity:1;fill-rule:nonzero;stroke:none"
         x="0"
         y="0">157,300</tspan></text>
    <text
       id="text53"
       xml:space="preserve"
       transform="matrix(1.3333333,0,0,1.3333333,1048.1586,378.77676)"><tspan
         id="tspan53"
         style="font-variant:normal;font-weight:700;font-size:14px;font-family:Arial;writing-mode:lr-tb;fill:#696969;fill-opacity:1;fill-rule:nonzero;stroke:none"
         x="0"
         dx="0 -0.765625"
         y="0">119,500</tspan></text>
    <text
       id="text54"
       xml:space="preserve"
       transform="matrix(1.3333333,0,0,1.3333333,99.261693,569.26044)"><tspan
         id="tspan54"
         style="font-style:italic;font-variant:normal;font-weight:normal;font-size:14px;font-family:Arial;writing-mode:lr-tb;fill:#808080;fill-opacity:1;fill-rule:nonzero;stroke:none"
         x="0"
         y="0">Annotations = number of iterations until convergence</tspan></text>
    <text
       id="text55"
       xml:space="preserve"
       transform="matrix(1.3333333,0,0,1.3333333,307.91317,29.975)"><tspan
         id="tspan55"
         style="font-variant:normal;font-weight:700;font-size:21px;font-family:Arial;writing-mode:lr-tb;fill:#262626;fill-opacity:1;fill-rule:nonzero;stroke:none"
         x="0"
         dx="0 0 0 0 0 0 0 0 0 0 0 0 0 0 0 0 0 0 0 0 0 0 0 0 0 0 0 0 -0.765625"
         y="0">Sample Size vs Random Judge Acceptance</tspan></text>
    <path
       id="path55"
       d="m 639.13225,406.75225 h 186.3625 c 1.86667,0 2.8,0.93333 2.8,2.8 v 38.5375 c 0,1.86667 -0.93333,2.8 -2.8,2.8 h -186.3625 c -1.86667,0 -2.8,-0.93333 -2.8,-2.8 v -38.5375 c 0,-1.86667 0.93333,-2.8 2.8,-2.8 z"
       style="fill:#ffffff;fill-opacity:1;fill-rule:nonzero;stroke:#000000;stroke-width:1;stroke-linecap:butt;stroke-linejoin:miter;stroke-miterlimit:10;stroke-dasharray:none;stroke-opacity:1"
       transform="matrix(1.3333333,0,0,-1.3333333,0,648.49467)" />
    <path
       id="path56"
       d="m 641.93225,440.00225 h 14 14"
       style="fill:none;stroke:#ffffff;stroke-width:1.5;stroke-linecap:round;stroke-linejoin:round;stroke-miterlimit:10;stroke-dasharray:none;stroke-opacity:1"
       transform="matrix(1.3333333,0,0,-1.3333333,0,648.49467)" />
    <path
       id="path57"
       d="m 655.93225,435.00225 c 1.32601,0 2.5979,0.52683 3.53553,1.46447 0.93764,0.93763 1.46447,2.20951 1.46447,3.53553 0,1.32601 -0.52683,2.5979 -1.46447,3.53553 -0.93763,0.93764 -2.20952,1.46447 -3.53553,1.46447 -1.32602,0 -2.5979,-0.52683 -3.53553,-1.46447 -0.93764,-0.93763 -1.46447,-2.20952 -1.46447,-3.53553 0,-1.32602 0.52683,-2.5979 1.46447,-3.53553 0.93763,-0.93764 2.20951,-1.46447 3.53553,-1.46447 z"
       style="fill:#00ff7f;fill-opacity:1;fill-rule:nonzero;stroke:#000000;stroke-width:1;stroke-linecap:butt;stroke-linejoin:round;stroke-miterlimit:10;stroke-dasharray:none;stroke-opacity:1"
       transform="matrix(1.3333333,0,0,-1.3333333,0,648.49467)" />
    <text
       id="text57"
       xml:space="preserve"
       transform="matrix(1.3333333,0,0,1.3333333,908.17633,68.358333)"><tspan
         id="tspan57"
         style="font-variant:normal;font-weight:normal;font-size:14px;font-family:Arial;writing-mode:lr-tb;fill:#262626;fill-opacity:1;fill-rule:nonzero;stroke:none"
         x="0"
         y="0">Converged</tspan></text>
    <path
       id="path58"
       d="m 641.93225,420.0335 h 14 14"
       style="fill:none;stroke:#ffffff;stroke-width:1.5;stroke-linecap:round;stroke-linejoin:round;stroke-miterlimit:10;stroke-dasharray:none;stroke-opacity:1"
       transform="matrix(1.3333333,0,0,-1.3333333,0,648.49467)" />
    <path
       id="path59"
       d="m 655.93225,415.0335 c 1.32601,0 2.5979,0.52683 3.53553,1.46447 0.93764,0.93763 1.46447,2.20952 1.46447,3.53553 0,1.32601 -0.52683,2.5979 -1.46447,3.53553 -0.93763,0.93764 -2.20952,1.46447 -3.53553,1.46447 -1.32602,0 -2.5979,-0.52683 -3.53553,-1.46447 -0.93764,-0.93763 -1.46447,-2.20952 -1.46447,-3.53553 0,-1.32601 0.52683,-2.5979 1.46447,-3.53553 0.93763,-0.93764 2.20951,-1.46447 3.53553,-1.46447 z"
       style="fill:#ff4500;fill-opacity:1;fill-rule:nonzero;stroke:#000000;stroke-width:1;stroke-linecap:butt;stroke-linejoin:round;stroke-miterlimit:10;stroke-dasharray:none;stroke-opacity:1"
       transform="matrix(1.3333333,0,0,-1.3333333,0,648.49467)" />
    <text
       id="text59"
       xml:space="preserve"
       transform="matrix(1.3333333,0,0,1.3333333,908.17633,94.983333)"><tspan
         id="tspan59"
         style="font-variant:normal;font-weight:normal;font-size:14px;font-family:Arial;writing-mode:lr-tb;fill:#262626;fill-opacity:1;fill-rule:nonzero;stroke:none"
         x="0"
         y="0">Max iterations reached</tspan></text>
  </g>
</svg>
